<svg xmlns="http://www.w3.org/2000/svg" width="27.579" height="24.125" viewBox="0 0 27.579 24.125">
  <g id="Group_775" data-name="Group 775" transform="translate(-1120 -387)">
    <path id="Path_27277" data-name="Path 27277" d="M17479.834-10201.583v3.25H17506l.334-3.25h-26.5Z" transform="translate(-16359 10609)" fill="#ffd485"/>
    <g id="Group_774" data-name="Group 774">
      <path id="Path_27275" data-name="Path 27275" d="M17479.5-10201.583v-2.167l.5-1.417,1.25-2.166,1.416.75,2,.833,2.584-.833,2.084-.75.916,1.583.834,2v2.167Z" transform="translate(-16359 10609)" fill="#a5dede"/>
      <path id="Path_27276" data-name="Path 27276" d="M17494.5-10201.583l.334-3.834,1.416-1.833,1.166-.917,1.334-.833v-1.417l1,.584,2.666-.584v1.417l.5.833,1.5.917,1.084,1.833.584,2.25v1.584H17494.5Z" transform="translate(-16359 10609)" fill="#ff6498"/>
      <path id="Path_27278" data-name="Path 27278" d="M17482.5-10211.812l-.75-2.875.75-1.937,1.25-1.312h1.813l2.5,1.313.875,3.563-.875,2.375-2.812.938-1.812-.562Z" transform="translate(-16359 10609)" fill="#fff"/>
      <path id="Path_27279" data-name="Path 27279" d="M17496.75-10216.937h4.063l.375-.875,1,.875h1.5v4.063l-.625,2.063-1.875.688h-2.312l-1.562-1.312-.562-2.625Z" transform="translate(-16359 10609)" fill="#fff"/>
      <g id="Group_765" data-name="Group 765" transform="translate(-17023.852 11014)">
        <path id="Path_27266" data-name="Path 27266" d="M382.123,70.92a.578.578,0,0,1-.44-.95,5.185,5.185,0,0,0,1.244-3.362V61.439a5.168,5.168,0,0,0-10.337,0v5.168a5.154,5.154,0,0,0,1.244,3.362.574.574,0,0,1-.874.745,6.322,6.322,0,0,1-1.519-4.107V61.439a6.318,6.318,0,0,1,12.637,0v5.168a6.311,6.311,0,0,1-1.519,4.107.559.559,0,0,1-.434.205Z" transform="translate(17787.35 -10682.121)"/>
        <path id="Path_27267" data-name="Path 27267" d="M383.493,270.974H372.006a.576.576,0,0,1-.575-.575v-1.725a6.316,6.316,0,0,1,4.019-5.884v-1.467a.575.575,0,0,1,1.15,0V263.2a.567.567,0,0,1-.4.546,5.151,5.151,0,0,0-3.62,4.934v1.15h10.343v-1.15a5.151,5.151,0,0,0-3.62-4.934.577.577,0,0,1-.4-.546v-1.877a.575.575,0,1,1,1.15,0v1.467a6.316,6.316,0,0,1,4.019,5.884V270.4A.567.567,0,0,1,383.493,270.974Z" transform="translate(17787.359 -10876.72)"/>
        <path id="Path_27268" data-name="Path 27268" d="M418.327,118.378a4.025,4.025,0,0,1-4.019-4.019v-3.45a.576.576,0,0,1,.575-.575h2.875a1.152,1.152,0,0,0,1.15-1.15.575.575,0,1,1,1.15,0,1.152,1.152,0,0,0,1.15,1.15h.575a.576.576,0,0,1,.575.575v3.45a4.042,4.042,0,0,1-4.03,4.019Zm-2.875-6.893v2.875a2.875,2.875,0,0,0,5.749,0v-2.875a2.3,2.3,0,0,0-3.45,0Z" transform="translate(17746.779 -10732.74)"/>
        <path id="Path_27269" data-name="Path 27269" d="M464.75,221.7a1.739,1.739,0,0,1-1.22-.5.572.572,0,0,1,.81-.81.567.567,0,0,0,.81,0,.572.572,0,1,1,.81.81,1.692,1.692,0,0,1-1.208.5Z" transform="translate(17700.357 -10838.366)"/>
        <path id="Path_27270" data-name="Path 27270" d="M139.867,128.625a4.025,4.025,0,0,1-4.019-4.019v-1.15a4.019,4.019,0,0,1,8.037,0v1.15A4.025,4.025,0,0,1,139.867,128.625Zm0-8.043a2.879,2.879,0,0,0-2.875,2.875v1.15a2.875,2.875,0,0,0,5.749,0v-1.15A2.879,2.879,0,0,0,139.867,120.582Z" transform="translate(18010.303 -10742.988)"/>
        <path id="Path_27271" data-name="Path 27271" d="M186.29,221.7a1.739,1.739,0,0,1-1.22-.5.572.572,0,0,1,.81-.81.567.567,0,0,0,.81,0,.572.572,0,0,1,.81.81,1.692,1.692,0,0,1-1.209.5Z" transform="translate(17963.879 -10838.366)"/>
        <path id="Path_27272" data-name="Path 27272" d="M105.023,324.636H93.536a.576.576,0,0,1-.575-.575v-1.725A6.326,6.326,0,0,1,95.1,317.6a.574.574,0,1,1,.757.862,5.164,5.164,0,0,0-1.754,3.878v1.15h10.343v-1.15a5.174,5.174,0,0,0-1.754-3.878.574.574,0,1,1,.757-.862,6.326,6.326,0,0,1,2.141,4.74v1.725a.567.567,0,0,1-.569.575Z" transform="translate(18050.891 -10930.381)"/>
        <path id="Path_27273" data-name="Path 27273" d="M99.288,71.773a6.325,6.325,0,0,1-6.318-6.318V61.436a6.318,6.318,0,0,1,12.637,0v4.019A6.325,6.325,0,0,1,99.288,71.773Zm0-15.511a5.173,5.173,0,0,0-5.168,5.168v4.019a5.168,5.168,0,0,0,10.337,0V61.431A5.176,5.176,0,0,0,99.288,56.262Z" transform="translate(18050.883 -10682.118)"/>
        <path id="Path_27274" data-name="Path 27274" d="M119.969,433.873H93.546a.576.576,0,0,1-.575-.575v-2.875a.576.576,0,0,1,.575-.575h26.428a.576.576,0,0,1,.575.575V433.3a.581.581,0,0,1-.581.575ZM94.12,432.729H119.4V431H94.12Z" transform="translate(18050.881 -11036.748)"/>
      </g>
    </g>
  </g>
</svg>
