<svg xmlns="http://www.w3.org/2000/svg" width="27.578" height="26.134" viewBox="0 0 27.578 26.134">
  <g id="Group_799" data-name="Group 799" transform="translate(-687 -572.121)">
    <g id="Group_797" data-name="Group 797" transform="translate(77.332 64.778)">
      <path id="Path_27296" data-name="Path 27296" d="M17137.477-10202.506l.227-.727.912,1.108h2.158l.664-1.936.3,2.271.3-.717,2.807.382v6.086l-.758,4.564h-8.959l-1.744-.377-.211-4.187.211-3.457.582-2.629,2.635-.779h.27Z" transform="translate(-16520.955 10716.993)" fill="#a5dede"/>
      <rect id="Rectangle_199" data-name="Rectangle 199" width="7" height="6" transform="translate(614.488 524.222)" fill="#a5dede"/>
      <path id="Path_27294" data-name="Path 27294" d="M167.668,61.95h4.706c.625,0,1.13.625,1.13,0V56.537a2.261,2.261,0,0,0,2.26-2.26v-7.91a2.261,2.261,0,0,0-2.26-2.26h-1.192a3.955,3.955,0,1,0-5.526,0h-1.192a2.261,2.261,0,0,0-2.26,2.26v7.91a2.261,2.261,0,0,0,2.26,2.26V61.95C165.594,62.575,167.043,61.95,167.668,61.95Zm-.944-20.667a2.825,2.825,0,1,1,2.825,2.825A2.827,2.827,0,0,1,166.724,41.283Zm-2.26,12.994v-7.91a1.13,1.13,0,0,1,1.13-1.13h7.91a1.13,1.13,0,0,1,1.13,1.13v7.91a1.13,1.13,0,0,1-1.13,1.13v-6.78h-1.13V61.264l-2.26.687V55.407h-1.13l1.13,6.543-2.446-.687-.944-12.636h-1.13v6.78a1.13,1.13,0,0,1-1.13-1.13Z" transform="translate(448.334 470.015)" fill="#002c3e"/>
    </g>
    <g id="Group_798" data-name="Group 798" transform="translate(91.512 68.645)">
      <path id="Path_27296-2" data-name="Path 27296" d="M17136.809-10202.747l.191-.614.77.937h1.824l.561-1.635.254,1.918.252-.605,2.371.322v5.142l-.641,3.855h-7.566l-1.475-.318-.178-3.537.178-2.921.492-2.221,2.227-.658h.227Z" transform="translate(-16521.041 10716.125)" fill="#a5dede"/>
      <g id="noun-adult-and-child-474181" transform="translate(611.668 507.343)">
        <rect id="Rectangle_199-2" data-name="Rectangle 199" width="5" height="5" transform="translate(2.82 14.013)" fill="#a5dede"/>
        <path id="Path_27294-2" data-name="Path 27294" d="M167,58.127h3.975c.528,0,.954.528.954,0V53.555a1.91,1.91,0,0,0,1.909-1.909V44.964a1.91,1.91,0,0,0-1.909-1.909h-1.007a3.341,3.341,0,1,0-4.668,0h-1.007a1.91,1.91,0,0,0-1.909,1.909v6.682a1.91,1.91,0,0,0,1.909,1.909v4.572C165.243,58.655,166.467,58.127,167,58.127Zm-.8-17.458a2.386,2.386,0,1,1,2.386,2.386A2.388,2.388,0,0,1,166.2,40.669Zm-1.909,10.976V44.964a.955.955,0,0,1,.955-.955h6.682a.955.955,0,0,1,.955.955v6.682a.955.955,0,0,1-.955.955V46.873h-.955V57.547l-1.909.58V52.6h-.955l.955,5.527L167,57.547l-.8-10.674h-.955V52.6a.955.955,0,0,1-.955-.955Z" transform="translate(-163.334 -37.328)" fill="#002c3e"/>
      </g>
    </g>
    <path id="Path_27277" data-name="Path 27277" d="M17479.834-10201.583v3.25H17506l.334-3.25h-26.5Z" transform="translate(-16792 10796.131)" fill="#ffd485"/>
    <path id="Path_27274" data-name="Path 27274" d="M119.969,433.873H93.546a.576.576,0,0,1-.575-.575v-2.875a.576.576,0,0,1,.575-.575h26.428a.576.576,0,0,1,.575.575V433.3a.581.581,0,0,1-.581.575ZM94.12,432.729H119.4V431H94.12Z" transform="translate(594.029 164.383)" fill="#002c3e"/>
  </g>
</svg>
