<svg width="27" height="28" viewBox="0 0 27 28" fill="none" xmlns="http://www.w3.org/2000/svg">
<path d="M26.962 0.354929V0.212957H26.9274L26.7195 0H18.301C18.1172 0 17.941 0.0747883 17.811 0.207913C17.6811 0.341037 17.6081 0.521592 17.6081 0.709859C17.6081 0.898125 17.6811 1.07868 17.811 1.2118C17.941 1.34493 18.1172 1.41972 18.301 1.41972H24.6062L7.83843 18.4563C7.75902 18.5173 7.69333 18.5951 7.64581 18.6844C7.59829 18.7737 7.57006 18.8724 7.56302 18.9739C7.55599 19.0753 7.57031 19.1771 7.60502 19.2724C7.63973 19.3677 7.69403 19.4542 7.76422 19.5262C7.83442 19.5981 7.91888 19.6537 8.01188 19.6893C8.10488 19.7248 8.20426 19.7395 8.30328 19.7323C8.4023 19.7251 8.49865 19.6962 8.58581 19.6475C8.67297 19.5988 8.74891 19.5315 8.80847 19.4501L25.6109 2.27155V8.73126C25.6109 8.91953 25.6839 9.10008 25.8138 9.23321C25.9438 9.36633 26.12 9.44112 26.3038 9.44112C26.4875 9.44112 26.6638 9.36633 26.7937 9.23321C26.9236 9.10008 26.9966 8.91953 26.9966 8.73126V0.567887C27.0013 0.520682 27.0013 0.47312 26.9966 0.425915L26.962 0.354929Z" fill="white"/>
<path d="M3.88776 27.4107H19.7498C20.7809 27.4107 21.7698 26.9949 22.4989 26.2547C23.228 25.5145 23.6376 24.5107 23.6376 23.4639V15.9255C23.6376 15.7161 23.5557 15.5153 23.4098 15.3673C23.264 15.2193 23.0662 15.1361 22.86 15.1361C22.6538 15.1361 22.456 15.2193 22.3102 15.3673C22.1644 15.5153 22.0825 15.7161 22.0825 15.9255V23.4639C22.0825 24.0919 21.8367 24.6943 21.3993 25.1384C20.9618 25.5825 20.3685 25.832 19.7498 25.832H3.88776C3.2691 25.832 2.67578 25.5825 2.23832 25.1384C1.80086 24.6943 1.5551 24.0919 1.5551 23.4639V7.36088C1.5551 6.73282 1.80086 6.13049 2.23832 5.68639C2.67578 5.24228 3.2691 4.99279 3.88776 4.99279H11.3134C11.5196 4.99279 11.7174 4.90962 11.8632 4.76159C12.009 4.61356 12.0909 4.41278 12.0909 4.20343C12.0909 3.99407 12.009 3.7933 11.8632 3.64526C11.7174 3.49723 11.5196 3.41406 11.3134 3.41406H3.88776C2.85666 3.41406 1.86779 3.82989 1.1387 4.57006C0.409602 5.31023 0 6.31412 0 7.36088V23.4639C0 24.5107 0.409602 25.5145 1.1387 26.2547C1.86779 26.9949 2.85666 27.4107 3.88776 27.4107Z" fill="white"/>
</svg>
