<svg width="27" height="29" viewBox="0 0 27 29" fill="none" xmlns="http://www.w3.org/2000/svg">
<path d="M20.751 8.54331H18.736C18.4546 7.44197 17.4671 6.6263 16.2955 6.6263C15.1238 6.6263 14.1364 7.44197 13.8549 8.54331H6.24902C5.8995 8.54331 5.61621 8.8309 5.61621 9.18573C5.61621 9.54057 5.8995 9.82816 6.24902 9.82816H13.8548C14.1363 10.9295 15.1238 11.7452 16.2955 11.7452C17.4671 11.7452 18.4545 10.9295 18.736 9.82816H20.751C21.1005 9.82816 21.3838 9.54057 21.3838 9.18573C21.3838 8.8309 21.1005 8.54331 20.751 8.54331ZM16.2955 10.4603C15.6032 10.4603 15.04 9.8885 15.04 9.18568C15.04 8.48286 15.6032 7.9111 16.2955 7.9111C16.9877 7.9111 17.5509 8.48286 17.5509 9.18568C17.5509 9.8885 16.9877 10.4603 16.2955 10.4603ZM20.751 13.9875H13.3585C13.077 12.8861 12.0896 12.0704 10.9179 12.0704C9.74626 12.0704 8.75886 12.8861 8.47737 13.9875H6.24902C5.8995 13.9875 5.61621 14.275 5.61621 14.6299C5.61621 14.9847 5.8995 15.2723 6.24902 15.2723H8.47737C8.75886 16.3736 9.74631 17.1893 10.9179 17.1893C12.0896 17.1893 13.077 16.3736 13.3585 15.2723H20.751C21.1005 15.2723 21.3838 14.9847 21.3838 14.6299C21.3838 14.275 21.1005 13.9875 20.751 13.9875ZM10.9179 15.9045C10.2257 15.9045 9.66247 15.3327 9.66247 14.6299C9.66247 13.9271 10.2257 13.3553 10.9179 13.3553C11.6102 13.3553 12.1734 13.9271 12.1734 14.6299C12.1734 15.3327 11.6102 15.9045 10.9179 15.9045ZM20.751 19.4317H16.5245C16.243 18.3303 15.2556 17.5147 14.0839 17.5147C12.9123 17.5147 11.9249 18.3303 11.6434 19.4317H6.24902C5.8995 19.4317 5.61621 19.7193 5.61621 20.0741C5.61621 20.4289 5.8995 20.7165 6.24902 20.7165H11.6433C11.9248 21.8178 12.9123 22.6335 14.0839 22.6335C15.2555 22.6335 16.243 21.8179 16.5245 20.7165H20.751C21.1005 20.7165 21.3838 20.4289 21.3838 20.0741C21.3838 19.7193 21.1005 19.4317 20.751 19.4317ZM14.0839 21.3486C13.3916 21.3486 12.8284 20.7768 12.8284 20.0741C12.8284 19.3713 13.3916 18.7995 14.0839 18.7995C14.7762 18.7995 15.3394 19.3713 15.3394 20.0741C15.3394 20.7768 14.7762 21.3486 14.0839 21.3486ZM13.5 0.924805C6.05607 0.924805 0 7.07289 0 14.6299C0 22.1869 6.05607 28.335 13.5 28.335C20.9439 28.335 27 22.1869 27 14.6299C27 7.07289 20.9439 0.924805 13.5 0.924805ZM13.5 27.0501C6.75395 27.0501 1.26562 21.4784 1.26562 14.6299C1.26562 7.78133 6.75395 2.20966 13.5 2.20966C20.246 2.20966 25.7344 7.78133 25.7344 14.6299C25.7344 21.4784 20.246 27.0501 13.5 27.0501Z" fill="#F3F3F9"/>
</svg>
