<svg xmlns="http://www.w3.org/2000/svg" width="28.647" height="31.688" viewBox="0 0 28.647 31.688">
  <g id="Group_781" data-name="Group 781" transform="translate(-179 -161)">
    <g id="Group_780" data-name="Group 780" transform="translate(-10 2)">
      <g id="registration-complete" transform="translate(187 159)">
        <path id="Path_11788" data-name="Path 11788" d="M18.344.5H4.48A1.986,1.986,0,0,0,2.5,2.48V29.217A1.986,1.986,0,0,0,4.48,31.2H23.295a1.986,1.986,0,0,0,1.98-1.98V7.432Z" transform="translate(-0.005 -0.005)" fill="#fff"/>
        <path id="Path_11789" data-name="Path 11789" d="M25.432,7.432H20.48a1.986,1.986,0,0,1-1.98-1.98V.5Z" transform="translate(-0.161 -0.005)" fill="#dad9db"/>
        <circle id="Ellipse_1276" data-name="Ellipse 1276" cx="5.941" cy="5.941" r="5.941" transform="translate(18.339 19.31)" fill="#a5dede"/>
        <path id="Path_11792" data-name="Path 11792" d="M23.781,27.363c-.1,0-.3-.1-.4-.1L22,25.878a.49.49,0,1,1,.693-.693l1.089,1.089L26.257,23.8a.49.49,0,0,1,.693.693l-2.773,2.773A.6.6,0,0,1,23.781,27.363Z" transform="translate(-0.194 -0.231)"/>
        <path id="Path_11793" data-name="Path 11793" d="M23.587,25.944,22.5,24.855a.49.49,0,0,0-.693.693l1.386,1.386a.479.479,0,0,0,.693,0l2.773-2.773a.479.479,0,0,0,0-.693c-.1-.2-.4-.2-.594,0Zm2.179-6.932V7.229a.346.346,0,0,0-.1-.2L18.735.1c-.1,0-.2-.1-.3-.1H4.377A2.432,2.432,0,0,0,2,2.476V29.212a2.452,2.452,0,0,0,2.476,2.476H25.271a1,1,0,0,0,.3-.1,6.5,6.5,0,0,0,4.951-7.625A6.4,6.4,0,0,0,25.766,19.012ZM18.834,1.683l5.248,5.248H20.319a1.523,1.523,0,0,1-1.485-1.485ZM4.476,30.7A1.523,1.523,0,0,1,2.99,29.212V2.476A1.523,1.523,0,0,1,4.476.99H17.844V5.446a2.452,2.452,0,0,0,2.476,2.476h4.456V18.814h-.5a6.424,6.424,0,0,0-6.437,6.437,6.529,6.529,0,0,0,3.07,5.446Zm19.8,0a5.446,5.446,0,1,1,5.446-5.446h0A5.5,5.5,0,0,1,24.28,30.7ZM9.427,8.912A1.485,1.485,0,1,0,7.941,7.427,1.523,1.523,0,0,0,9.427,8.912Zm0-1.98a.5.5,0,1,1-.5.5A.468.468,0,0,1,9.427,6.932ZM4.971,16.339a.468.468,0,0,0,.5.5H21.31a.5.5,0,0,0,0-.99H5.466A.468.468,0,0,0,4.971,16.339Zm10.4,5.446h-9.9a.5.5,0,0,0,0,.99h9.9a.5.5,0,0,0,0-.99Zm-9.9,3.961h8.912a.5.5,0,0,0,0-.99H5.466a.5.5,0,0,0,0,.99Zm11.883-6.932H5.466a.5.5,0,0,0,0,.99H17.349a.5.5,0,0,0,0-.99Zm-1.98,8.912h-9.9a.5.5,0,0,0,0,.99h9.9a.5.5,0,0,0,0-.99ZM5.565,9.011a4.289,4.289,0,0,0,.1.5,1.99,1.99,0,0,0,.4,1.287,1.99,1.99,0,0,0,1.287.4h.2a25.164,25.164,0,0,0,3.862-.1h.2a1.99,1.99,0,0,0,1.287-.4,1.99,1.99,0,0,0,.4-1.287.742.742,0,0,1,.1-.5,1.367,1.367,0,0,1,.3-.4,1.61,1.61,0,0,0,.5-1.089,1.726,1.726,0,0,0-.594-1.188c-.1-.1-.2-.3-.3-.4a4.289,4.289,0,0,0-.1-.5,1.99,1.99,0,0,0-.4-1.287,1.99,1.99,0,0,0-1.287-.4.742.742,0,0,1-.5-.1,1.367,1.367,0,0,1-.4-.3,1.726,1.726,0,0,0-1.188-.594,1.726,1.726,0,0,0-1.188.594c-.1.1-.3.2-.4.3a4.289,4.289,0,0,0-.5.1,1.99,1.99,0,0,0-1.287.4,1.826,1.826,0,0,0-.4,1.287.742.742,0,0,1-.1.5,1.367,1.367,0,0,1-.3.4,1.726,1.726,0,0,0-.594,1.188,1.726,1.726,0,0,0,.594,1.188A1.367,1.367,0,0,1,5.565,9.011Zm4.852,2.674ZM5.961,6.932a1.776,1.776,0,0,0,.5-.693,1.472,1.472,0,0,0,.2-.891,1.256,1.256,0,0,1,.1-.594,1.256,1.256,0,0,1,.594-.1,2.742,2.742,0,0,0,.891-.1c.2-.2.5-.3.693-.594.2-.2.4-.4.5-.4s.3.3.5.4a1.776,1.776,0,0,0,.693.5,2.742,2.742,0,0,0,.891.1,1.256,1.256,0,0,1,.594.1,1.256,1.256,0,0,1,.1.594,2.741,2.741,0,0,0,.1.891,1.679,1.679,0,0,0,.594.792c.2.2.4.4.4.5s-.3.3-.4.5a1.776,1.776,0,0,0-.5.693,2.741,2.741,0,0,0-.1.891,1.256,1.256,0,0,1-.1.594,1.256,1.256,0,0,1-.594.1,2.742,2.742,0,0,0-.891.1,1.776,1.776,0,0,0-.693.5c-.2.2-.4.4-.5.4a3.255,3.255,0,0,1-.594-.3,1.776,1.776,0,0,0-.693-.5,2.741,2.741,0,0,0-.891-.1,1.256,1.256,0,0,1-.594-.1,1.933,1.933,0,0,1-.1-.693,2.742,2.742,0,0,0-.1-.891c-.2-.2-.3-.5-.594-.693-.1-.2-.3-.4-.3-.5S5.862,7.13,5.961,6.932Z" fill="#002c3e"/>
      </g>
      <rect id="Rectangle_188" data-name="Rectangle 188" width="12" height="10" transform="translate(191 161)" fill="#fff"/>
    </g>
    <path id="Path_27282" data-name="Path 27282" d="M79.594,334h.271a2.735,2.735,0,0,1,1.355-2.355.744.744,0,0,1-.11-.09c-.032-.032-.071-.058-.1-.09A2.976,2.976,0,0,0,79.594,334Z" transform="translate(103.406 -161.397)" fill="none" stroke="#002c3e" stroke-width="1"/>
    <path id="Path_27283" data-name="Path 27283" d="M475.789,334h.271a2.985,2.985,0,0,0-1.407-2.536.692.692,0,0,1-.1.09l-.11.09A2.744,2.744,0,0,1,475.789,334Z" transform="translate(-287.061 -161.783)" fill="none" stroke="#002c3e" stroke-width="1"/>
    <path id="Path_27284" data-name="Path 27284" d="M167.7,0a2.033,2.033,0,0,0-1.361,3.549,1.353,1.353,0,0,0,.11.09.856.856,0,0,0,.123.09,2.014,2.014,0,0,0,1.136.342,2.082,2.082,0,0,0,1.136-.342,1.482,1.482,0,0,0,.123-.09l.11-.09a2.033,2.033,0,0,0,.677-1.51A2.059,2.059,0,0,0,167.7,0Zm.968,3.523c-.045.032-.1.058-.148.09a1.778,1.778,0,0,1-1.639,0,1.135,1.135,0,0,1-.148-.09c-.045-.032-.09-.058-.129-.09a1.758,1.758,0,0,1-.677-1.387,1.774,1.774,0,1,1,3.549,0,1.759,1.759,0,0,1-.677,1.387c-.039.026-.084.058-.129.09Z" transform="translate(18.297 166)" fill="none" stroke="#002c3e" stroke-width="1"/>
  </g>
</svg>
